<svg xmlns="http://www.w3.org/2000/svg" version="1.1" xmlns:xlink="http://www.w3.org/1999/xlink" width="328" height="409.7"><svg xmlns="http://www.w3.org/2000/svg" version="1.1" xmlns:xlink="http://www.w3.org/1999/xlink" width="328" height="409.7"><svg version="1.1" id="Layer_1" xmlns="http://www.w3.org/2000/svg" xmlns:xlink="http://www.w3.org/1999/xlink" x="0px" y="0px" viewBox="0 0 328 409.7" style="enable-background:new 0 0 328 409.7;" xml:space="preserve">
<style type="text/css">
	.st0{fill:#B4A53B;}
</style>
<g>
	<g>
		<path class="st0" d="M327.9,277.9c-0.1,53.5-41.4,101.9-103.4,121.4c-83.2,26.3-176.7-5.1-211.3-71.3c-16-30.5-16-61.7-4-93.1
			c6.1-16.2,16.3-30.9,26.2-45.7C69.5,138.8,103.2,88,137.9,38c11.6-16.6,20.8-30.1,26.3-38c1.6,2.2,3.1,4.3,4.7,6.5
			c16.3,23.9,32.6,47.8,48.8,71.7c29.2,43.1,58.5,86.1,87.5,129.3C320,229.4,327.7,252.9,327.9,277.9z"></path>
		<path class="st0" d="M338.5,4.2"></path>
	</g>
</g>
</svg></svg><style>@media (prefers-color-scheme: light) { :root { filter: none; } }
@media (prefers-color-scheme: dark) { :root { filter: none; } }
</style></svg>