<?xml version="1.0" encoding="utf-8"?>
<!-- Generator: Adobe Illustrator 24.2.1, SVG Export Plug-In . SVG Version: 6.00 Build 0)  -->
<svg version="1.1" id="Layer_1" xmlns="http://www.w3.org/2000/svg" xmlns:xlink="http://www.w3.org/1999/xlink" x="0px" y="0px"
	 viewBox="0 0 465.3 79.1" style="enable-background:new 0 0 465.3 79.1;" xml:space="preserve">
<style type="text/css">
	.st0{fill:#B4A53B;}
</style>
<g>
	<path d="M1.6,29.7c-0.4-0.4-0.6-0.9-0.6-1.5v-2.2c0-0.6,0.2-1.1,0.6-1.5c0.4-0.4,1-0.6,1.6-0.6h3.7v-5.1c0-3.3,1.2-6,3.5-8.2
		c2.3-2.2,5.1-3.3,8.5-3.3h2.8c0.6,0,1.2,0.2,1.6,0.6c0.4,0.4,0.6,0.9,0.6,1.5v2.8c0,0.6-0.2,1.2-0.6,1.6c-0.4,0.4-1,0.6-1.6,0.6
		h-2.2c-1.4,0-2.6,0.5-3.6,1.5c-1,1-1.4,2.3-1.4,3.7v4.1h7.3c0.6,0,1.2,0.2,1.6,0.6c0.4,0.4,0.6,0.9,0.6,1.5v2.2
		c0,0.6-0.2,1.1-0.6,1.5c-0.4,0.4-1,0.6-1.6,0.6h-7.3v28.4c0,0.7-0.2,1.3-0.7,1.8s-1,0.7-1.8,0.7H9.4c-0.7,0-1.3-0.2-1.8-0.7
		s-0.7-1.1-0.7-1.8V30.3H3.2C2.5,30.3,2,30.1,1.6,29.7z M30,60.5c-0.5-0.5-0.7-1.1-0.7-1.8v-49c0-0.7,0.2-1.3,0.7-1.8
		c0.5-0.5,1.1-0.7,1.8-0.7h2.5c0.7,0,1.3,0.2,1.8,0.7s0.7,1.1,0.7,1.8v49c0,0.7-0.2,1.3-0.7,1.8s-1,0.7-1.8,0.7h-2.5
		C31.1,61.2,30.5,61,30,60.5z"/>
	<path d="M46.4,24.5c0.5-0.5,1.1-0.7,1.8-0.7h2.5c0.7,0,1.3,0.2,1.8,0.7s0.7,1.1,0.7,1.8v19c0,2.8,0.9,5.1,2.8,6.9S60,55,62.8,55
		c2.9,0,5.3-0.9,7.2-2.8c1.9-1.9,2.9-4.2,2.9-7V26.3c0-0.7,0.2-1.3,0.7-1.8c0.5-0.5,1.1-0.7,1.8-0.7h2.5c0.7,0,1.2,0.2,1.7,0.7
		s0.7,1.1,0.7,1.8v32.4c0,0.7-0.2,1.3-0.7,1.8s-1.1,0.7-1.7,0.7h-2.5c-0.7,0-1.3-0.2-1.8-0.7c-0.5-0.5-0.7-1.1-0.7-1.8v-2.8
		c-2.9,4.2-7,6.3-12.2,6.3c-4.3,0-7.9-1.4-10.7-4.2c-2.8-2.8-4.2-6.3-4.2-10.6V26.3C45.6,25.6,45.9,25,46.4,24.5z"/>
	<path d="M89.5,11.2c0.9-1,2.1-1.4,3.5-1.4s2.6,0.5,3.5,1.4c1,1,1.4,2.1,1.4,3.5s-0.5,2.6-1.4,3.5c-1,1-2.1,1.4-3.5,1.4
		s-2.6-0.5-3.5-1.4s-1.4-2.1-1.4-3.5S88.6,12.1,89.5,11.2z M89.3,26.3c0-0.7,0.2-1.3,0.7-1.8s1.1-0.7,1.8-0.7h2.5
		c0.7,0,1.2,0.2,1.7,0.7s0.7,1.1,0.7,1.8v32.4c0,0.7-0.2,1.3-0.7,1.8s-1.1,0.7-1.7,0.7h-2.5c-0.7,0-1.3-0.2-1.8-0.7
		s-0.7-1.1-0.7-1.8V26.3z"/>
	<path d="M109.2,56.5c-3.5-3.7-5.2-8.4-5.2-14c0-5.6,1.7-10.3,5.2-14c3.5-3.7,7.8-5.6,12.9-5.6c5,0,9.3,1.8,12.8,5.5V9.7
		c0-0.7,0.2-1.3,0.7-1.8s1-0.7,1.8-0.7h2.5c0.7,0,1.3,0.2,1.8,0.7c0.5,0.5,0.7,1.1,0.7,1.8v49c0,0.7-0.2,1.3-0.7,1.8
		c-0.5,0.5-1.1,0.7-1.8,0.7h-2.5c-0.7,0-1.3-0.2-1.8-0.7s-0.7-1.1-0.7-1.8v-2c-3.5,3.6-7.8,5.5-12.8,5.5
		C117,62.1,112.7,60.3,109.2,56.5z M115.1,33.8c-2.2,2.3-3.3,5.2-3.3,8.7c0,3.5,1.1,6.3,3.3,8.7c2.2,2.3,4.9,3.5,8.1,3.5
		c3.3,0,6-1.2,8.2-3.5c2.2-2.3,3.3-5.2,3.3-8.7c0-3.5-1.1-6.3-3.3-8.7c-2.2-2.3-4.9-3.5-8.2-3.5C120,30.3,117.3,31.5,115.1,33.8z"/>
	<path class="st0" d="M151.3,26.3c0-0.7,0.2-1.3,0.7-1.8s1.1-0.7,1.8-0.7h2.5c0.7,0,1.2,0.2,1.7,0.7s0.7,1.1,0.7,1.8v2.2
		c2.6-3.8,6.4-5.7,11.4-5.7c2.6,0,5,0.6,7.1,1.8c2.1,1.2,3.8,2.8,5,4.9c0.6-1,1.3-1.9,2.1-2.7c0.8-0.9,2.2-1.7,4.1-2.6
		c1.9-0.9,4-1.3,6.4-1.3c4.3,0,7.8,1.3,10.6,4c2.8,2.6,4.2,6,4.2,9.9v22c0,0.7-0.2,1.3-0.7,1.8s-1,0.7-1.8,0.7h-2.5
		c-0.7,0-1.3-0.2-1.8-0.7s-0.7-1.1-0.7-1.8V38.8c0-2.5-0.8-4.6-2.5-6.3s-3.8-2.6-6.3-2.6c-2.6,0-4.8,0.9-6.6,2.6
		c-1.8,1.7-2.6,3.8-2.6,6.4v19.8c0,0.7-0.2,1.3-0.7,1.8c-0.5,0.5-1.1,0.7-1.8,0.7h-2.4c-0.7,0-1.3-0.2-1.8-0.7s-0.7-1.1-0.7-1.8
		V38.8c0-2.5-0.8-4.6-2.5-6.3s-3.8-2.6-6.3-2.6c-2.6,0-4.8,0.9-6.6,2.6c-1.8,1.7-2.7,3.8-2.7,6.4v19.8c0,0.7-0.2,1.3-0.7,1.8
		s-1.1,0.7-1.7,0.7h-2.5c-0.7,0-1.3-0.2-1.8-0.7s-0.7-1.1-0.7-1.8V26.3z"/>
	<path class="st0" d="M222.3,56.5c-3.5-3.7-5.2-8.4-5.2-14c0-5.6,1.7-10.3,5.2-14c3.5-3.7,7.8-5.6,12.9-5.6c5,0,9.3,1.8,12.8,5.5v-2
		c0-0.7,0.2-1.3,0.7-1.8s1-0.7,1.8-0.7h2.5c0.7,0,1.3,0.2,1.8,0.7c0.5,0.5,0.7,1.1,0.7,1.8v32.4c0,0.7-0.2,1.3-0.7,1.8
		c-0.5,0.5-1.1,0.7-1.8,0.7h-2.5c-0.7,0-1.3-0.2-1.8-0.7s-0.7-1.1-0.7-1.8v-2c-3.5,3.6-7.8,5.5-12.8,5.5
		C230.1,62.1,225.8,60.3,222.3,56.5z M228.2,33.8c-2.2,2.3-3.3,5.2-3.3,8.7c0,3.5,1.1,6.3,3.3,8.7s4.9,3.5,8.1,3.5
		c3.3,0,6-1.2,8.2-3.5c2.2-2.3,3.3-5.2,3.3-8.7c0-3.5-1.1-6.3-3.3-8.7c-2.2-2.3-4.9-3.5-8.2-3.5C233.2,30.3,230.4,31.5,228.2,33.8z"
		/>
	<path class="st0" d="M265.2,60.5c-0.5-0.5-0.7-1.1-0.7-1.8V26.3c0-0.7,0.2-1.3,0.7-1.8c0.5-0.5,1.1-0.7,1.8-0.7h2.5
		c0.7,0,1.2,0.2,1.7,0.7c0.5,0.5,0.7,1.1,0.7,1.8v3c2.7-4.3,6.8-6.4,12.3-6.4c4.3,0,7.8,1.4,10.7,4.2s4.2,6.3,4.2,10.5v21.2
		c0,0.7-0.2,1.3-0.7,1.8c-0.5,0.5-1.1,0.7-1.8,0.7h-2.4c-0.7,0-1.3-0.2-1.8-0.7c-0.5-0.5-0.7-1.1-0.7-1.8v-19c0-2.8-0.9-5.1-2.7-6.9
		s-4.1-2.8-6.9-2.8c-2.8,0-5.2,0.9-7.2,2.8s-2.9,4.2-2.9,7v18.9c0,0.7-0.2,1.3-0.7,1.8c-0.5,0.5-1.1,0.7-1.7,0.7H267
		C266.3,61.2,265.7,61,265.2,60.5z"/>
	<path class="st0" d="M311.5,56.5c-3.5-3.7-5.2-8.4-5.2-14c0-5.6,1.7-10.3,5.2-14c3.5-3.7,7.8-5.6,12.9-5.6c5,0,9.3,1.8,12.8,5.5v-2
		c0-0.7,0.2-1.3,0.7-1.8s1-0.7,1.8-0.7h2.5c0.7,0,1.3,0.2,1.8,0.7c0.5,0.5,0.7,1.1,0.7,1.8v32.4c0,0.7-0.2,1.3-0.7,1.8
		c-0.5,0.5-1.1,0.7-1.8,0.7h-2.5c-0.7,0-1.3-0.2-1.8-0.7s-0.7-1.1-0.7-1.8v-2c-3.5,3.6-7.8,5.5-12.8,5.5
		C319.3,62.1,315,60.3,311.5,56.5z M317.4,33.8c-2.2,2.3-3.3,5.2-3.3,8.7c0,3.5,1.1,6.3,3.3,8.7s4.9,3.5,8.1,3.5
		c3.3,0,6-1.2,8.2-3.5c2.2-2.3,3.3-5.2,3.3-8.7c0-3.5-1.1-6.3-3.3-8.7c-2.2-2.3-4.9-3.5-8.2-3.5C322.4,30.3,319.7,31.5,317.4,33.8z"
		/>
	<path class="st0" d="M357.2,56.5c-3.5-3.7-5.2-8.4-5.2-14c0-5.6,1.7-10.3,5.2-14c3.5-3.7,7.8-5.6,12.9-5.6c5,0,9.3,1.8,12.8,5.5v-2
		c0-0.7,0.2-1.3,0.7-1.8s1-0.7,1.8-0.7h2.5c0.7,0,1.3,0.2,1.8,0.7c0.5,0.5,0.7,1.1,0.7,1.8v33.6c0,5.2-1.8,9.6-5.4,13.1
		s-8.1,5.3-13.3,5.3c-3.4,0-6.5-0.8-9.5-2.3c-3-1.5-5.3-3.5-7-6c-0.4-0.6-0.5-1.2-0.3-1.7c0.2-0.6,0.7-1,1.4-1.2l3.7-1.2
		c0.1,0,0.3-0.1,0.5-0.1c0.7,0,1.3,0.3,1.9,0.9c2.2,2.6,5.2,4,9.1,4c3.3,0,6-1,8.2-3.1s3.3-4.7,3.3-7.8v-3.2
		c-3.5,3.6-7.8,5.5-12.8,5.5C364.9,62.1,360.6,60.3,357.2,56.5z M363.1,33.8c-2.2,2.3-3.3,5.2-3.3,8.7c0,3.5,1.1,6.3,3.3,8.7
		s4.9,3.5,8.1,3.5c3.3,0,6-1.2,8.2-3.5c2.2-2.3,3.3-5.2,3.3-8.7c0-3.5-1.1-6.3-3.3-8.7c-2.2-2.3-4.9-3.5-8.2-3.5
		C368,30.3,365.3,31.5,363.1,33.8z"/>
	<path class="st0" d="M405.4,45.2c0.6,2.9,2,5.3,4.3,7.2s5,2.8,8.1,2.8c3.6,0,6.5-1.2,8.9-3.5c0.6-0.5,1.3-0.8,2-0.8
		c0.2,0,0.4,0,0.6,0.1l3.5,1.1c0.7,0.2,1.1,0.6,1.3,1.2c0.2,0.6,0.1,1.1-0.4,1.6c-3.9,4.9-9.2,7.3-15.8,7.3
		c-5.7,0-10.5-1.9-14.3-5.6c-3.8-3.7-5.8-8.4-5.8-14c0-5.6,1.9-10.3,5.6-14c3.7-3.7,8.4-5.6,13.9-5.6c5.7,0,10.4,1.9,14,5.8
		s5.4,8.5,5.4,14.1c0,0.7-0.3,1.3-0.8,1.8c-0.5,0.5-1.1,0.8-1.9,0.8H405.4z M424.6,32.4c-2.2-1.8-4.7-2.6-7.7-2.6
		c-2.7,0-5.2,0.9-7.3,2.6c-2.1,1.8-3.5,4-4.2,6.8h23.5C428.2,36.5,426.8,34.2,424.6,32.4z"/>
	<path class="st0" d="M443.9,24.5c0.5-0.5,1.1-0.7,1.8-0.7h2.5c0.7,0,1.2,0.2,1.7,0.7c0.5,0.5,0.7,1.1,0.7,1.8v2.5
		c2.3-3.5,5.9-5.5,10.9-5.9c0.7,0,1.2,0.2,1.7,0.6c0.5,0.5,0.7,1,0.7,1.8v3.4c0,1.3-0.8,1.9-2.4,1.9h-0.9c-2.8,0-5.2,0.9-7.2,2.8
		s-2.9,4.2-2.9,6.9v18.4c0,0.7-0.2,1.3-0.7,1.8c-0.5,0.5-1.1,0.7-1.7,0.7h-2.5c-0.7,0-1.3-0.2-1.8-0.7c-0.5-0.5-0.7-1.1-0.7-1.8
		V26.3C443.2,25.6,443.5,25,443.9,24.5z"/>
</g>
</svg>
